<?xml version="1.0" encoding="utf-8"?>
<!-- Generator: Adobe Illustrator 27.3.0, SVG Export Plug-In . SVG Version: 6.00 Build 0)  -->
<svg version="1.1" id="Layer_1" xmlns="http://www.w3.org/2000/svg" xmlns:xlink="http://www.w3.org/1999/xlink" x="0px" y="0px"
	 viewBox="0 0 624 130" style="enable-background:new 0 0 624 130;" xml:space="preserve">
<style type="text/css">
	.st0{fill:none;stroke:#D0CECE;stroke-miterlimit:8;}
	.st1{fill:none;stroke:#D0CECE;stroke-width:2.25;stroke-miterlimit:8;}
	.st2{fill:none;stroke:#7F7F7F;stroke-miterlimit:8;}
	.st3{fill:#7F7F7F;}
	.st4{font-family:'LibertinusMath-Regular';}
	.st5{font-size:18px;}
	.st6{fill:none;stroke:#595959;stroke-width:2.25;stroke-miterlimit:8;}
	.st7{fill:none;stroke:#7F7F7F;stroke-width:2.25;stroke-miterlimit:8;}
	.st8{font-size:12px;}
</style>
<rect x="13.6" y="50" class="st0" width="17.5" height="41.8"/>
<rect x="31" y="50" class="st0" width="17.5" height="41.8"/>
<rect x="48.5" y="50" class="st0" width="17.5" height="41.8"/>
<rect x="66" y="50" class="st0" width="17.5" height="41.8"/>
<rect x="83.5" y="50" class="st0" width="17.5" height="41.8"/>
<rect x="100.9" y="50" class="st0" width="17.5" height="41.8"/>
<rect x="118.4" y="50" class="st0" width="17.5" height="41.8"/>
<rect x="135.9" y="50" class="st0" width="17.5" height="41.8"/>
<rect x="13.6" y="50" class="st1" width="139.8" height="41.8"/>
<rect x="293.6" y="50" class="st0" width="17.5" height="41.8"/>
<rect x="311.1" y="50" class="st0" width="17.5" height="41.8"/>
<rect x="328.5" y="50" class="st0" width="17.5" height="41.8"/>
<rect x="346" y="50" class="st0" width="17.5" height="41.8"/>
<rect x="363.5" y="50" class="st0" width="17.5" height="41.8"/>
<rect x="381" y="50" class="st0" width="17.5" height="41.8"/>
<rect x="398.4" y="50" class="st0" width="17.5" height="41.8"/>
<rect x="415.9" y="50" class="st0" width="17.5" height="41.8"/>
<rect x="293.6" y="50" class="st1" width="139.8" height="41.8"/>
<rect x="153.6" y="50" class="st2" width="17.5" height="41.8"/>
<text transform="matrix(1 0 0 1 158.14 77.12)" class="st3 st4 st5">0</text>
<rect x="171.1" y="50" class="st2" width="17.5" height="41.8"/>
<text transform="matrix(1 0 0 1 175.61 77.12)" class="st3 st4 st5">1</text>
<rect x="188.5" y="50" class="st2" width="17.5" height="41.8"/>
<text transform="matrix(1 0 0 1 193.08 77.12)" class="st3 st4 st5">0</text>
<rect x="206" y="50" class="st2" width="17.5" height="41.8"/>
<text transform="matrix(1 0 0 1 210.55 77.6)" class="st3 st4 st5">0</text>
<rect x="223.5" y="50" class="st2" width="17.5" height="41.8"/>
<text transform="matrix(1 0 0 1 228.02 77.12)" class="st3 st4 st5">1</text>
<rect x="240.9" y="50" class="st2" width="17.5" height="41.8"/>
<text transform="matrix(1 0 0 1 245.49 77.12)" class="st3 st4 st5">1</text>
<rect x="258.4" y="50" class="st2" width="17.5" height="41.8"/>
<text transform="matrix(1 0 0 1 262.96 77.12)" class="st3 st4 st5">0</text>
<rect x="275.9" y="50" class="st2" width="17.5" height="41.8"/>
<text transform="matrix(1 0 0 1 280.43 77.12)" class="st3 st4 st5">1</text>
<rect x="153.6" y="50" class="st6" width="139.8" height="41.8"/>
<rect x="433.4" y="50" class="st0" width="17.5" height="41.8"/>
<rect x="450.8" y="50" class="st0" width="17.5" height="41.8"/>
<rect x="468.3" y="50" class="st0" width="17.5" height="41.8"/>
<rect x="485.8" y="50" class="st0" width="17.5" height="41.8"/>
<rect x="503.2" y="50" class="st0" width="17.5" height="41.8"/>
<rect x="520.7" y="50" class="st0" width="17.5" height="41.8"/>
<rect x="538.2" y="50" class="st0" width="17.5" height="41.8"/>
<rect x="555.7" y="50" class="st0" width="17.5" height="41.8"/>
<rect x="433.4" y="50" class="st1" width="139.8" height="41.8"/>
<path class="st7" d="M153.3,47.3c0-1.8,0.2-3.3,0.6-3.3h7.9c0.3,0,0.6-1.5,0.6-3.3c0,1.8,0.2,3.3,0.6,3.3h7.9c0.3,0,0.6,1.5,0.6,3.3
	"/>
<path class="st7" d="M153.3,24.2c0-1.9,0.3-3.4,0.6-3.4h68.9c0.3,0,0.6-1.5,0.6-3.4c0,1.9,0.3,3.4,0.6,3.4h68.9
	c0.3,0,0.6,1.5,0.6,3.4"/>
<text transform="matrix(1 0 0 1 155.71 37.28)" class="st3 st4 st8">b</text>
<text transform="matrix(1 0 0 1 161.59 37.28)" class="st3 st4 st8">it</text>
<text transform="matrix(1 0 0 1 213.35 11.36)" class="st3 st4 st8">b</text>
<text transform="matrix(1 0 0 1 219.23 11.36)" class="st3 st4 st8">y</text>
<text transform="matrix(1 0 0 1 225.36 11.36)" class="st3 st4 st8">t</text>
<text transform="matrix(1 0 0 1 229.12 11.36)" class="st3 st4 st8">e</text>
<text transform="matrix(1 0 0 1 71.94 106.4)" class="st3 st4 st8">100</text>
<text transform="matrix(1 0 0 1 88.79 106.4)" class="st3 st4 st8">0</text>
<text transform="matrix(1 0 0 1 212.12 106.4)" class="st3 st4 st8">100</text>
<text transform="matrix(1 0 0 1 228.97 106.4)" class="st3 st4 st8">1</text>
<text transform="matrix(1 0 0 1 352.31 106.4)" class="st3 st4 st8">100</text>
<text transform="matrix(1 0 0 1 369.16 106.4)" class="st3 st4 st8">2</text>
<text transform="matrix(1 0 0 1 492.49 106.4)" class="st3 st4 st8">100</text>
<text transform="matrix(1 0 0 1 509.34 106.4)" class="st3 st4 st8">3</text>
<text transform="matrix(1 0 0 1 599.48 106.4)" class="st3 st4 st8">…</text>
<rect x="573.2" y="50" class="st0" width="17.5" height="41.8"/>
<rect x="590.7" y="50" class="st0" width="17.5" height="41.8"/>
<polyline class="st1" points="616.2,50.2 573,50.2 573,91.8 617.3,91.8 "/>
<text transform="matrix(1 0 0 1 179.75 121.04)" class="st3 st4 st8">(</text>
<text transform="matrix(1 0 0 1 184.01 121.04)" class="st3 st4 st8">m</text>
<text transform="matrix(1 0 0 1 193.5 121.04)" class="st3 st4 st8">e</text>
<text transform="matrix(1 0 0 1 198.87 121.04)" class="st3 st4 st8">m</text>
<text transform="matrix(1 0 0 1 208.36 121.04)" class="st3 st4 st8">o</text>
<text transform="matrix(1 0 0 1 214.37 121.04)" class="st3 st4 st8">r</text>
<text transform="matrix(1 0 0 1 218.87 121.04)" class="st3 st4 st8">y</text>
<text transform="matrix(1 0 0 1 225 121.04)" class="st3 st4 st8"> </text>
<text transform="matrix(1 0 0 1 228 121.04)" class="st3 st4 st8">a</text>
<text transform="matrix(1 0 0 1 233.5 121.04)" class="st3 st4 st8">dd</text>
<text transform="matrix(1 0 0 1 245.74 121.04)" class="st3 st4 st8">r</text>
<text transform="matrix(1 0 0 1 250.23 121.04)" class="st3 st4 st8">e</text>
<text transform="matrix(1 0 0 1 255.59 121.04)" class="st3 st4 st8">ss</text>
<text transform="matrix(1 0 0 1 264.85 121.04)" class="st3 st4 st8">)</text>
</svg>
